<mxfile host="app.diagrams.net" modified="2020-11-25T03:48:42.923Z" agent="5.0 (Macintosh; Intel Mac OS X 11_0_0) AppleWebKit/537.36 (KHTML, like Gecko) Chrome/86.0.4240.198 Safari/537.36" etag="imjH5gzCThI7tlkHqhys" version="13.10.2" type="github">
  <diagram id="jSfyrHMaqYscW3Hgkhtl" name="Page-1">
    <mxGraphModel dx="1584" dy="920" grid="1" gridSize="10" guides="1" tooltips="1" connect="1" arrows="1" fold="1" page="0" pageScale="1" pageWidth="827" pageHeight="1169" math="0" shadow="0">
      <root>
        <mxCell id="0" />
        <mxCell id="1" parent="0" />
        <mxCell id="ntpL3JNamJc1o5I3P88G-1" value="用户表(user)" style="rounded=0;whiteSpace=wrap;html=1;fillColor=#dae8fc;strokeColor=#6c8ebf;" vertex="1" parent="1">
          <mxGeometry x="240" y="270" width="120" height="60" as="geometry" />
        </mxCell>
        <mxCell id="ntpL3JNamJc1o5I3P88G-2" value="项目表(project)" style="rounded=0;whiteSpace=wrap;html=1;fillColor=#dae8fc;strokeColor=#6c8ebf;" vertex="1" parent="1">
          <mxGeometry x="240" y="500" width="120" height="60" as="geometry" />
        </mxCell>
        <mxCell id="ntpL3JNamJc1o5I3P88G-4" value="景区/区划表(scenic)" style="rounded=0;whiteSpace=wrap;html=1;fillColor=#dae8fc;strokeColor=#6c8ebf;" vertex="1" parent="1">
          <mxGeometry x="240" y="730" width="120" height="60" as="geometry" />
        </mxCell>
        <mxCell id="ntpL3JNamJc1o5I3P88G-5" value="" style="rhombus;whiteSpace=wrap;html=1;fillColor=#ffe6cc;strokeColor=#d79b00;" vertex="1" parent="1">
          <mxGeometry x="275" y="620" width="50" height="50" as="geometry" />
        </mxCell>
        <mxCell id="ntpL3JNamJc1o5I3P88G-12" value="用户项目配置(project_user_config)" style="rounded=0;whiteSpace=wrap;html=1;fillColor=#dae8fc;strokeColor=#6c8ebf;" vertex="1" parent="1">
          <mxGeometry x="780" y="550" width="120" height="60" as="geometry" />
        </mxCell>
        <mxCell id="ntpL3JNamJc1o5I3P88G-13" value="" style="endArrow=classic;html=1;exitX=0.5;exitY=1;exitDx=0;exitDy=0;entryX=0.5;entryY=0;entryDx=0;entryDy=0;" edge="1" parent="1" source="ntpL3JNamJc1o5I3P88G-1" target="ntpL3JNamJc1o5I3P88G-15">
          <mxGeometry width="50" height="50" relative="1" as="geometry">
            <mxPoint x="80" y="570" as="sourcePoint" />
            <mxPoint x="300" y="380" as="targetPoint" />
          </mxGeometry>
        </mxCell>
        <mxCell id="ntpL3JNamJc1o5I3P88G-14" value="1" style="edgeLabel;html=1;align=center;verticalAlign=middle;resizable=0;points=[];" vertex="1" connectable="0" parent="ntpL3JNamJc1o5I3P88G-13">
          <mxGeometry x="-0.04" y="-1" relative="1" as="geometry">
            <mxPoint as="offset" />
          </mxGeometry>
        </mxCell>
        <mxCell id="ntpL3JNamJc1o5I3P88G-15" value="" style="rhombus;whiteSpace=wrap;html=1;fillColor=#ffe6cc;strokeColor=#d79b00;" vertex="1" parent="1">
          <mxGeometry x="275" y="390" width="50" height="50" as="geometry" />
        </mxCell>
        <mxCell id="ntpL3JNamJc1o5I3P88G-16" value="" style="endArrow=classic;html=1;exitX=0.5;exitY=1;exitDx=0;exitDy=0;entryX=0.5;entryY=0;entryDx=0;entryDy=0;" edge="1" parent="1" source="ntpL3JNamJc1o5I3P88G-15" target="ntpL3JNamJc1o5I3P88G-2">
          <mxGeometry width="50" height="50" relative="1" as="geometry">
            <mxPoint x="380" y="430" as="sourcePoint" />
            <mxPoint x="380" y="480" as="targetPoint" />
          </mxGeometry>
        </mxCell>
        <mxCell id="ntpL3JNamJc1o5I3P88G-17" value="n" style="edgeLabel;html=1;align=center;verticalAlign=middle;resizable=0;points=[];" vertex="1" connectable="0" parent="ntpL3JNamJc1o5I3P88G-16">
          <mxGeometry x="-0.04" y="-1" relative="1" as="geometry">
            <mxPoint as="offset" />
          </mxGeometry>
        </mxCell>
        <mxCell id="ntpL3JNamJc1o5I3P88G-18" value="用户项目表(project_user)" style="text;html=1;align=center;verticalAlign=middle;resizable=0;points=[];autosize=1;" vertex="1" parent="1">
          <mxGeometry x="335" y="405" width="150" height="20" as="geometry" />
        </mxCell>
        <mxCell id="ntpL3JNamJc1o5I3P88G-20" value="" style="endArrow=classic;html=1;exitX=0.5;exitY=0;exitDx=0;exitDy=0;" edge="1" parent="1" source="ntpL3JNamJc1o5I3P88G-5" target="ntpL3JNamJc1o5I3P88G-2">
          <mxGeometry width="50" height="50" relative="1" as="geometry">
            <mxPoint x="540" y="470" as="sourcePoint" />
            <mxPoint x="590" y="420" as="targetPoint" />
          </mxGeometry>
        </mxCell>
        <mxCell id="ntpL3JNamJc1o5I3P88G-21" value="n" style="edgeLabel;html=1;align=center;verticalAlign=middle;resizable=0;points=[];" vertex="1" connectable="0" parent="ntpL3JNamJc1o5I3P88G-20">
          <mxGeometry x="-0.0667" y="-2" relative="1" as="geometry">
            <mxPoint x="-3" as="offset" />
          </mxGeometry>
        </mxCell>
        <mxCell id="ntpL3JNamJc1o5I3P88G-22" value="" style="endArrow=classic;html=1;exitX=0.5;exitY=0;exitDx=0;exitDy=0;entryX=0.5;entryY=1;entryDx=0;entryDy=0;" edge="1" parent="1" source="ntpL3JNamJc1o5I3P88G-4" target="ntpL3JNamJc1o5I3P88G-5">
          <mxGeometry width="50" height="50" relative="1" as="geometry">
            <mxPoint x="440" y="730" as="sourcePoint" />
            <mxPoint x="440" y="670" as="targetPoint" />
          </mxGeometry>
        </mxCell>
        <mxCell id="ntpL3JNamJc1o5I3P88G-23" value="n" style="edgeLabel;html=1;align=center;verticalAlign=middle;resizable=0;points=[];" vertex="1" connectable="0" parent="ntpL3JNamJc1o5I3P88G-22">
          <mxGeometry x="-0.0667" y="-2" relative="1" as="geometry">
            <mxPoint x="-3" as="offset" />
          </mxGeometry>
        </mxCell>
        <mxCell id="ntpL3JNamJc1o5I3P88G-24" value="角色表(role)" style="rounded=0;whiteSpace=wrap;html=1;fillColor=#dae8fc;strokeColor=#6c8ebf;" vertex="1" parent="1">
          <mxGeometry x="240" y="90" width="120" height="60" as="geometry" />
        </mxCell>
        <mxCell id="ntpL3JNamJc1o5I3P88G-25" value="权限表(right)" style="rounded=0;whiteSpace=wrap;html=1;fillColor=#dae8fc;strokeColor=#6c8ebf;" vertex="1" parent="1">
          <mxGeometry x="570" y="90" width="120" height="60" as="geometry" />
        </mxCell>
        <mxCell id="ntpL3JNamJc1o5I3P88G-26" value="" style="endArrow=classic;html=1;exitX=1;exitY=0.5;exitDx=0;exitDy=0;entryX=0;entryY=0.5;entryDx=0;entryDy=0;" edge="1" parent="1" target="ntpL3JNamJc1o5I3P88G-28" source="ntpL3JNamJc1o5I3P88G-24">
          <mxGeometry width="50" height="50" relative="1" as="geometry">
            <mxPoint x="625" y="235" as="sourcePoint" />
            <mxPoint x="625" y="285" as="targetPoint" />
          </mxGeometry>
        </mxCell>
        <mxCell id="ntpL3JNamJc1o5I3P88G-27" value="&amp;nbsp;1&amp;nbsp;" style="edgeLabel;html=1;align=center;verticalAlign=middle;resizable=0;points=[];" vertex="1" connectable="0" parent="ntpL3JNamJc1o5I3P88G-26">
          <mxGeometry x="-0.04" y="-1" relative="1" as="geometry">
            <mxPoint y="-1" as="offset" />
          </mxGeometry>
        </mxCell>
        <mxCell id="ntpL3JNamJc1o5I3P88G-28" value="" style="rhombus;whiteSpace=wrap;html=1;fillColor=#ffe6cc;strokeColor=#d79b00;" vertex="1" parent="1">
          <mxGeometry x="440" y="95" width="50" height="50" as="geometry" />
        </mxCell>
        <mxCell id="ntpL3JNamJc1o5I3P88G-29" value="" style="endArrow=classic;html=1;exitX=1;exitY=0.5;exitDx=0;exitDy=0;entryX=0;entryY=0.5;entryDx=0;entryDy=0;" edge="1" parent="1" source="ntpL3JNamJc1o5I3P88G-28" target="ntpL3JNamJc1o5I3P88G-25">
          <mxGeometry width="50" height="50" relative="1" as="geometry">
            <mxPoint x="705" y="335" as="sourcePoint" />
            <mxPoint x="625" y="405" as="targetPoint" />
          </mxGeometry>
        </mxCell>
        <mxCell id="ntpL3JNamJc1o5I3P88G-30" value="&amp;nbsp;n&amp;nbsp;" style="edgeLabel;html=1;align=center;verticalAlign=middle;resizable=0;points=[];" vertex="1" connectable="0" parent="ntpL3JNamJc1o5I3P88G-29">
          <mxGeometry x="-0.04" y="-1" relative="1" as="geometry">
            <mxPoint y="-2" as="offset" />
          </mxGeometry>
        </mxCell>
        <mxCell id="ntpL3JNamJc1o5I3P88G-31" value="角色权限表(role_right)" style="text;html=1;align=center;verticalAlign=middle;resizable=0;points=[];autosize=1;" vertex="1" parent="1">
          <mxGeometry x="410" y="70" width="130" height="20" as="geometry" />
        </mxCell>
      </root>
    </mxGraphModel>
  </diagram>
</mxfile>
